<?xml version="1.0" standalone="no"?>
<!DOCTYPE svg PUBLIC "-//W3C//DTD SVG 20010904//EN"
 "http://www.w3.org/TR/2001/REC-SVG-20010904/DTD/svg10.dtd">
<svg version="1.0" xmlns="http://www.w3.org/2000/svg"
 width="32.000000pt" height="32.000000pt" viewBox="0 0 32.000000 32.000000"
 preserveAspectRatio="xMidYMid meet">

<g transform="translate(0.000000,32.000000) scale(0.100000,-0.100000)"
fill="#000000" stroke="none">
<path d="M171 282 c-6 -11 -26 -23 -45 -26 -41 -8 -86 -56 -86 -91 0 -32 14
-64 43 -99 19 -24 33 -30 72 -32 43 -3 51 0 78 29 54 58 61 109 21 156 -14 17
-32 31 -40 31 -8 0 -13 9 -11 21 3 29 -19 36 -32 11z m12 -16 c-10 -13 -19
-23 -21 -21 -5 5 22 45 31 45 4 0 0 -11 -10 -24z m-35 -32 c-5 -25 22 -29 29
-5 7 27 38 20 71 -15 35 -39 27 -94 -21 -146 -21 -23 -32 -27 -72 -24 -37 2
-51 8 -70 32 -32 39 -42 91 -24 123 23 41 93 69 87 35z"/>
<path d="M227 183 c-4 -3 -7 -17 -7 -29 0 -12 -7 -29 -15 -38 -8 -8 -15 -19
-15 -24 0 -6 -7 -13 -16 -16 -15 -6 -11 -26 5 -26 18 0 63 73 67 106 3 32 -4
42 -19 27z"/>
</g>
</svg>
